<svg xmlns="http://www.w3.org/2000/svg" viewBox="0 0 330.11 336.57"><defs><style>.cls-1{fill:#71c4e5;}.cls-1,.cls-4{stroke:#e0e1e3;stroke-width:3px;}.cls-1,.cls-2,.cls-3,.cls-4{stroke-miterlimit:10;}.cls-2{fill:#e4001b;}.cls-2,.cls-3{stroke:#1a1818;}.cls-3{fill:#e50019;}.cls-4{fill:none;}.cls-5{fill:#96999c;}</style></defs><g id="Layer_2" data-name="Layer 2"><g id="Layer_1-2" data-name="Layer 1"><g id="Group_35" data-name="Group 35"><circle id="Ellipse_46" data-name="Ellipse 46" class="cls-1" cx="181.57" cy="188.03" r="147.03"/><path id="Path_53" data-name="Path 53" class="cls-2" d="M180.25,40.14a64.35,64.35,0,0,1,5.58-14.94c.94-1.81,2-3.67,2-5.71,0-2.57-1.64-4.81-2.58-7.2a13.72,13.72,0,0,1-.86-6.68,6.28,6.28,0,0,1,1.54-3.74c1.72-1.71,4.53-1.52,6.91-1a28.23,28.23,0,0,1,9.57,3.55,14.85,14.85,0,0,1,6.37,7.8,4.59,4.59,0,0,1,.11,3.08c-.58,1.45-2.2,2.16-3.73,2.47a15.23,15.23,0,0,0-4.49,1.15c-2.29,1.31-3.1,4.17-3.58,6.76a83.2,83.2,0,0,0-1.38,13.9"/><path id="Path_54" data-name="Path 54" class="cls-2" d="M119.61,53.89a39.76,39.76,0,0,0,.22-9.93,15.12,15.12,0,0,0-1.28-5.16c-1-2.1-2.84-3.72-4.24-5.6-2.89-3.89-3.86-9.74-.75-13.46,3.46-4.14,10-3.7,15.05-1.81a16,16,0,0,1,6.79,4.3c1.74,2.08,2.55,5.11,1.43,7.57-1.28,2.82-4.58,4.17-6.26,6.77-2.27,3.52-1,8.16.4,12.12"/><path id="Path_55" data-name="Path 55" class="cls-3" d="M236.82,51.16c3.89-3.45,5.78-8.57,7.54-13.46a11.86,11.86,0,0,0,1-5.29c-.42-3.51-3.92-6.2-3.89-9.74s3.66-6,7.11-6,6.62,1.87,9.38,3.95c2.2,1.66,4.36,3.59,5.39,6.15a9.19,9.19,0,0,1-4.82,11.46c-1.11.47-2.32.7-3.4,1.23-2.67,1.29-4.21,4.14-5.12,7s-1.36,5.8-2.69,8.45"/><path id="Path_56" data-name="Path 56" class="cls-2" d="M48,123.23a30.29,30.29,0,0,1-9.43-1.63,2.13,2.13,0,0,1-.77-.41c-.85-.8,0-2.18,0-3.35,0-1.48-1.59-2.58-3.07-2.5a6.24,6.24,0,0,0-3.84,2A12.81,12.81,0,0,0,27,124.1a8.58,8.58,0,0,0,2,7.37,3.22,3.22,0,0,0,2.91,1.21c1.15-.25,2-1.46,3.13-1.55a3.54,3.54,0,0,1,1.43.31l6.43,2.35"/><path id="Path_57" data-name="Path 57" class="cls-2" d="M93.29,68.71a30.14,30.14,0,0,1-7.65-5.77,2.08,2.08,0,0,1-.5-.7c-.39-1.1,1-1.93,1.56-3,.68-1.31-.25-3-1.59-3.63a6.29,6.29,0,0,0-4.34,0,12.88,12.88,0,0,0-6.53,4.24,8.55,8.55,0,0,0-1.62,7.44,3.23,3.23,0,0,0,2,2.41c1.14.3,2.41-.41,3.5,0a3.61,3.61,0,0,1,1.13.93l4.65,5"/><path id="Path_58" data-name="Path 58" class="cls-2" d="M165.17,40.45a29.75,29.75,0,0,1-4-8.68,1.93,1.93,0,0,1-.11-.86c.17-1.15,1.81-1.22,2.77-1.89,1.22-.84,1.2-2.78.3-3.95a6.29,6.29,0,0,0-3.85-2,12.78,12.78,0,0,0-7.75.66,8.6,8.6,0,0,0-4.94,5.81,3.26,3.26,0,0,0,.67,3.08c.86.8,2.32.77,3.06,1.69a3.49,3.49,0,0,1,.56,1.35l1.74,6.63"/><path id="Path_59" data-name="Path 59" class="cls-2" d="M40.31,233.72c-5-1.42-10.33-.27-15.4.88a11.9,11.9,0,0,0-5,2c-2.74,2.25-3.13,6.65-6.13,8.52s-7,.15-8.91-2.76-2-6.58-1.71-10c.22-2.76.69-5.61,2.3-7.86a9.19,9.19,0,0,1,12.25-2.09c1,.69,1.83,1.58,2.86,2.21,2.52,1.55,5.75,1.32,8.62.57s5.62-2,8.57-2.27"/><path id="Path_60" data-name="Path 60" class="cls-2" d="M61.62,273.28a40.61,40.61,0,0,0-9.77,1.83,14.91,14.91,0,0,0-4.78,2.31c-1.84,1.45-3.06,3.54-4.61,5.29-3.22,3.63-8.75,5.78-13,3.5-4.75-2.55-5.66-9-4.85-14.36a15.92,15.92,0,0,1,2.82-7.53,7.4,7.4,0,0,1,7.12-2.95c3,.67,5,3.63,7.9,4.74,3.92,1.5,8.19-.72,11.78-2.88"/><path id="Path_61" data-name="Path 61" class="cls-2" d="M35.17,174.72a40.76,40.76,0,0,0-9-4.1,15.08,15.08,0,0,0-5.24-.85c-2.35.13-4.54,1.15-6.82,1.69-4.71,1.13-10.48-.27-12.67-4.6-2.44-4.81.53-10.64,4.25-14.54a15.83,15.83,0,0,1,6.62-4.55c2.59-.79,5.7-.35,7.53,1.65,2.09,2.28,2,5.86,3.76,8.42,2.35,3.47,7.12,4.09,11.3,4.39"/><path id="Path_62" data-name="Path 62" class="cls-2" d="M60.51,104.06c-2.92-4.31-7.74-6.85-12.37-9.23A11.9,11.9,0,0,0,43,93.14c-3.53,0-6.66,3.09-10.16,2.6s-5.5-4.42-5.06-7.84,2.71-6.32,5.13-8.78c1.93-2,4.13-3.86,6.81-4.55a9.19,9.19,0,0,1,10.73,6.27c.31,1.16.39,2.38.77,3.53.94,2.8,3.56,4.71,6.23,6s5.58,2.1,8,3.76"/><path id="Path_63" data-name="Path 63" class="cls-2" d="M33.46,189.07a30.23,30.23,0,0,1-9,3.14,2.26,2.26,0,0,1-.86,0c-1.13-.29-1-1.93-1.6-2.95-.71-1.3-2.64-1.48-3.89-.7a6.3,6.3,0,0,0-2.39,3.62,12.76,12.76,0,0,0-.12,7.78,8.56,8.56,0,0,0,5.27,5.5,3.27,3.27,0,0,0,3.13-.34c.89-.79,1-2.23,2-2.88a3.49,3.49,0,0,1,1.41-.42l6.77-1.05"/><path id="Path_64" data-name="Path 64" class="cls-1" d="M86.25,297.69,276.89,78.38S360.13,311.64,86.25,297.69Z"/><path id="Path_65" data-name="Path 65" class="cls-4" d="M191.81,50.26s5.55,125.62,134.46,114.44"/><path id="Path_66" data-name="Path 66" class="cls-4" d="M55.49,216.26s125.18-12,132,117.23"/><line id="Line_9" data-name="Line 9" class="cls-4" x1="181.61" y1="187.99" x2="292.58" y2="284.45"/><path id="Path_72" data-name="Path 72" class="cls-5" d="M70.65,91.52A147,147,0,0,1,278.08,77h0c.95.83-192,222.77-192.93,221.93A147,147,0,0,1,70.65,91.52Z"/></g></g></g></svg>