<svg xmlns="http://www.w3.org/2000/svg" viewBox="0 0 279.66 150.6"><defs><style>.cls-1{fill:#f3ff5f;}</style></defs><g id="Layer_2" data-name="Layer 2"><g id="Layer_1-2" data-name="Layer 1"><g id="Group_54" data-name="Group 54"><circle id="Ellipse_47" data-name="Ellipse 47" class="cls-1" cx="91.99" cy="11.74" r="10.61" transform="translate(70.66 101.98) rotate(-83.98)"/><circle id="Ellipse_48" data-name="Ellipse 48" class="cls-1" cx="186.13" cy="11.01" r="11.01"/><ellipse id="Ellipse_49" data-name="Ellipse 49" class="cls-1" cx="258.68" cy="13.56" rx="10.21" ry="10.61" transform="translate(218.05 269.39) rotate(-83.98)"/><circle id="Ellipse_50" data-name="Ellipse 50" class="cls-1" cx="19.75" cy="27.05" r="8"/><circle id="Ellipse_51" data-name="Ellipse 51" class="cls-1" cx="7.2" cy="41.02" r="7.2" transform="translate(-34.35 43.88) rotate(-83.98)"/><circle id="Ellipse_52" data-name="Ellipse 52" class="cls-1" cx="271.66" cy="28.08" r="8"/><path id="Path_76" data-name="Path 76" class="cls-1" d="M6.74,42.58C31.68,74.09,29.86,80.84,30.3,87.22c.13,2.53,7.2,7.1,8.31,3.19,4.58-15.71-7-42.89-7-42.89S55.78,81.26,72.24,77.76C91.07,73.82,94,30.35,94,30.35s18.3,34.43,41.14,37.24c34.76,4.28,48-38.8,48-38.8s3.49,32.66,27.17,38.08c20.42,3.87,39.1-31.09,39.1-31.09s-11.55,42.65-.6,43.81c8,.84,8-10.13,8.8-17.59,1.55-14.72,9.93-22.59,17.16-31.09l-2.17-1.33c-25.13,30.25-16.8,43.8-20.92,40C251,69,251,68.16,250.65,67c-3.75-12.16,9.63-53.11,9.63-53.11s-1.61-3.79-3.47-.47C249,27,229.11,69,210.19,62.34c-26.2-9.1-20.54-51.26-20.54-51.26s-5.24-2.77-6.24,0c-4.73,13.29-13.75,52.07-43.77,52.43-27.8.28-42.76-40.94-47-51.75-.88-2.21-1.63.13-1.67.53C89.86,25.19,86,71.17,71.13,73c-14.57,1.78-41.34-34.35-49.8-45.7-1.77-2.3-2.49-.26-2.49-.26S41.19,66.94,32.1,81.58c0,0-.19-8.68-24-40.66Z"/><path id="Path_77" data-name="Path 77" class="cls-1" d="M36.43,92c9.1,4.38,4.21,12.62.85,16.79,0,0,23-17.79,115.79-19,92.48-1.2,99.16,7,99.16,7s-6.8-7.06.18-17.89c1.32-2.07-5.19-10.91-5.19-10.91l4.89-35.9L229.76,58.07l-6.27,5.07-11.75,1.68-14-4.5-13-35.27L168.61,52.22l-10.84,9.22-15.05,5.35-19.29-3.14L93.8,27,87,61.72,76,74.24l-8.87,2L54,69.6,30.79,43.51,38.2,77.19Z"/><path id="Path_78" data-name="Path 78" class="cls-1" d="M41.79,137.53s-8.62,5.43-6,12.65c1.33,3.56,36.4-17,111.08-18.26,84.47-1.45,113.63,12,114.47,9.77,1.12-3-.72-9.33-6.81-11.69,0,0-43.14-12.6-109.23-9.81C82.07,122.87,65.34,127.94,41.79,137.53Z"/><path id="Path_79" data-name="Path 79" class="cls-1" d="M42.58,102.4c-7.95,3.79-11.68,17.28-4.09,16.87,5.17-5.18,46-20.59,107.84-20.91,22.55-.14,60.31-2.29,101.75,10.13,0,0,16.75-10.91,1.57-14.82,0,0-40.37-11.2-103.62-8.62S65.57,91.45,42.58,102.4Z"/><path id="Path_80" data-name="Path 80" class="cls-1" d="M42.53,135.3s25-14.06,102.23-16.38c68.33-2,102.65,7.41,108.74,9.76,0,0-10.31-.48-6-19.14,0,0-37.47-12-104.59-9.93-20.69.63-73,2.15-103.81,20.83C39,120.53,43.55,125.64,42.53,135.3Z"/><path id="Path_81" data-name="Path 81" class="cls-1" d="M250.41,55.92s1.7,6.82,14.83-23.28l5.87.61-14.49,22-2.47,18.65-6.25-3.78Z"/><path id="Path_82" data-name="Path 82" class="cls-1" d="M31.25,83.9,28,71.38,9.31,45.87l1.17-1.59L34,68.4l4,12.08Z"/><ellipse id="Ellipse_53" data-name="Ellipse 53" class="cls-1" cx="184.99" cy="21.9" rx="3.4" ry="9.3" transform="translate(143.8 203.58) rotate(-83.98)"/><ellipse id="Ellipse_54" data-name="Ellipse 54" class="cls-1" cx="254.75" cy="24.23" rx="2.5" ry="7.2" transform="translate(142.38 254.14) rotate(-69.39)"/><ellipse id="Ellipse_55" data-name="Ellipse 55" class="cls-1" cx="93.4" cy="22.66" rx="8.3" ry="2.5" transform="translate(-2.33 14.17) rotate(-8.57)"/><ellipse id="Ellipse_56" data-name="Ellipse 56" class="cls-1" cx="24.39" cy="34.65" rx="6.1" ry="2.4" transform="matrix(0.86, -0.5, 0.5, 0.86, -14.15, 17.04)"/><ellipse id="Ellipse_57" data-name="Ellipse 57" class="cls-1" cx="11.82" cy="47.5" rx="3.7" ry="2" transform="translate(-27.25 18) rotate(-38.98)"/><ellipse id="Ellipse_58" data-name="Ellipse 58" class="cls-1" cx="267.47" cy="35.35" rx="2" ry="4.4" transform="translate(115.42 258.22) rotate(-63.22)"/></g></g></g></svg>