<svg xmlns="http://www.w3.org/2000/svg" viewBox="0 0 160.59 178.81"><defs><style>.cls-1{fill:none;stroke:#fff;stroke-miterlimit:10;stroke-width:5px;}</style></defs><g id="Layer_2" data-name="Layer 2"><g id="Layer_1-2" data-name="Layer 1"><g id="Group_33" data-name="Group 33"><g id="Group_25" data-name="Group 25"><path id="Path_37" data-name="Path 37" class="cls-1" d="M60.12,55.73C61.32,46,54.94,36.9,47.3,32S30.78,25.09,22.47,21.73,5.79,9.9,2.33.9"/></g><g id="Group_26" data-name="Group 26"><path id="Path_38" data-name="Path 38" class="cls-1" d="M51.21,127.55c-7.05-5.91-8.38-17.36-6.14-26.82s7.29-17.77,11-26.65,6.14-19.27,2.83-28.35"/><path id="Path_39" data-name="Path 39" class="cls-1" d="M125.12,119.15c-5.35-7.8-15.7-9.26-24.27-6.79s-16.07,8-24.1,12.18-17.43,6.79-25.64,3.13"/></g><g id="Group_27" data-name="Group 27"><path id="Path_40" data-name="Path 40" class="cls-1" d="M160.15,176.15c-8.77,1.33-14-5.73-18.5-14.17s-6.22-18.26-9.25-27.45-8-18.43-16.14-22.26"/></g></g><path id="Ellipse_45" data-name="Ellipse 45" class="cls-1" d="M160.59,65.53c-32.51,0-58.88-29.06-58.88-64.9"/></g></g></svg>