<svg xmlns="http://www.w3.org/2000/svg" viewBox="0 0 321.53 355.66"><defs><style>.cls-1{fill:none;stroke:#fff;stroke-miterlimit:10;stroke-width:5px;}</style></defs><g id="Layer_2" data-name="Layer 2"><g id="Layer_1-2" data-name="Layer 1"><g id="Group_34" data-name="Group 34"><g id="Group_33" data-name="Group 33"><g id="Group_25" data-name="Group 25"><path id="Path_36" data-name="Path 36" class="cls-1" d="M2.65,180.75c-1.2-9.7,5.18-18.82,12.81-23.77S32,150.11,40.3,146.75,57,137.93,60.43,128.92"/><path id="Path_37" data-name="Path 37" class="cls-1" d="M60.29,232.58c1.2-9.7-5.18-18.82-12.82-23.77S31,201.94,22.64,198.58,6,189.75,2.5,180.75"/></g><g id="Group_26" data-name="Group 26"><path id="Path_38" data-name="Path 38" class="cls-1" d="M51.38,304.41c-7.05-5.92-8.38-17.36-6.14-26.83s7.29-17.77,11-26.64,6.14-19.28,2.83-28.35"/><path id="Path_39" data-name="Path 39" class="cls-1" d="M125.29,296c-5.35-7.8-15.7-9.26-24.26-6.79S85,297.27,76.93,301.39s-17.44,6.79-25.65,3.13"/></g><g id="Group_27" data-name="Group 27"><path id="Path_40" data-name="Path 40" class="cls-1" d="M163.32,353c-8.77,1.33-17-5.72-21.5-14.17s-6.21-18.26-9.25-27.45-8-18.43-16.13-22.26"/><path id="Path_41" data-name="Path 41" class="cls-1" d="M210.21,289.28c-8.77-1.33-17,5.73-21.5,14.17s-6.22,18.26-9.26,27.46-8,18.43-16.13,22.25"/></g><g id="Group_28" data-name="Group 28"><path id="Path_42" data-name="Path 42" class="cls-1" d="M46.75,56.29C52.1,48.49,62.45,47,71,49.5s16.07,8.06,24.1,12.18,17.44,6.79,25.64,3.13"/><path id="Path_43" data-name="Path 43" class="cls-1" d="M54.36,138c7-5.91,8.37-17.36,6.14-26.82s-7.29-17.77-11-26.65-6.14-19.27-2.83-28.35"/></g><g id="Group_29" data-name="Group 29"><path id="Path_44" data-name="Path 44" class="cls-1" d="M158.51,2.66c8.77-1.33,17,5.73,21.5,14.17s6.22,18.26,9.25,27.45,8,18.44,16.14,22.26"/><path id="Path_45" data-name="Path 45" class="cls-1" d="M111.63,66.38c8.77,1.33,17-5.72,21.5-14.17s6.21-18.26,9.25-27.45,8-18.43,16.13-22.26"/></g><g id="Group_30" data-name="Group 30"><path id="Path_46" data-name="Path 46" class="cls-1" d="M270.37,51.17c7.05,5.92,8.38,17.36,6.14,26.83s-7.28,17.77-11,26.64-6.14,19.28-2.83,28.35"/><path id="Path_47" data-name="Path 47" class="cls-1" d="M196.46,59.58c5.35,7.8,15.7,9.26,24.27,6.79s16.07-8.06,24.1-12.18,17.44-6.79,25.64-3.13"/></g><g id="Group_31" data-name="Group 31"><path id="Path_48" data-name="Path 48" class="cls-1" d="M318.88,174.56c1.2,9.7-5.18,18.82-12.81,23.77s-16.52,6.87-24.84,10.23-16.67,8.82-20.13,17.83"/><path id="Path_49" data-name="Path 49" class="cls-1" d="M261.24,122.74c-1.2,9.69,5.18,18.82,12.82,23.76s16.52,6.87,24.83,10.23,16.68,8.83,20.14,17.83"/></g><g id="Group_32" data-name="Group 32"><path id="Path_50" data-name="Path 50" class="cls-1" d="M273.94,299.58c-5.35,7.79-15.7,9.26-24.27,6.78s-16.08-8.05-24.1-12.17-17.44-6.8-25.65-3.13"/><path id="Path_51" data-name="Path 51" class="cls-1" d="M266.33,217.87c-7.05,5.92-8.38,17.36-6.14,26.83s7.29,17.77,11,26.64,6.14,19.28,2.83,28.35"/></g></g><ellipse id="Ellipse_45" data-name="Ellipse 45" class="cls-1" cx="160.76" cy="177.48" rx="58.88" ry="64.9"/></g></g></g></svg>