<svg xmlns="http://www.w3.org/2000/svg" viewBox="0 0 176.93 156.92"><defs><style>.cls-1,.cls-2{fill:#fff;}.cls-2{stroke:#fff;stroke-miterlimit:10;}</style></defs><g id="Layer_2" data-name="Layer 2"><g id="Layer_1-2" data-name="Layer 1"><g id="Group_53" data-name="Group 53"><rect id="Rectangle_197" data-name="Rectangle 197" class="cls-1" x="22.9" y="147.25" width="128.16" height="9.67" rx="2.42"/><rect id="Rectangle_198" data-name="Rectangle 198" class="cls-1" x="22.9" y="70.77" width="9.98" height="86.15" rx="2.42"/><rect id="Rectangle_199" data-name="Rectangle 199" class="cls-1" x="141.27" y="67.2" width="9.79" height="87.73" rx="2.42"/><path id="Path_85" data-name="Path 85" class="cls-2" d="M173.33,89.18,97.05,4.79C93.7,1.09,89-.53,86.59,1.18h0c-2.42,1.71-1.67,6.1,1.68,9.81l76.28,84.39c3.35,3.71,8,5.32,10.45,3.61h0C177.43,97.28,176.68,92.89,173.33,89.18Z"/><path id="Path_86" data-name="Path 86" class="cls-2" d="M3.61,89.22,79.87,4.82c3.34-3.71,8-5.34,10.41-3.65h0c2.4,1.7,1.64,6.08-1.71,9.78L12.32,95.36C9,99.06,4.3,100.7,1.9,99h0C-.5,97.31.26,92.93,3.61,89.22Z"/></g></g></g></svg>