<svg xmlns="http://www.w3.org/2000/svg" viewBox="0 0 223 113"><defs><style>.cls-1{fill:#fff;}.cls-2{fill:none;stroke:#707070;stroke-width:3px;}</style></defs><g id="Layer_2" data-name="Layer 2"><g id="Layer_1-2" data-name="Layer 1"><g id="Group_37" data-name="Group 37"><g id="Rectangle_158" data-name="Rectangle 158"><path class="cls-1" d="M56.5,0h110A56.51,56.51,0,0,1,223,56.5h0A56.51,56.51,0,0,1,166.5,113H56.5A56.51,56.51,0,0,1,0,56.5H0A56.51,56.51,0,0,1,56.5,0Z"/><path class="cls-2" d="M56.5,1.5h110a55,55,0,0,1,55,55h0a55,55,0,0,1-55,55H56.5a55,55,0,0,1-55-55h0A55,55,0,0,1,56.5,1.5Z"/></g><g id="Ellipse_42" data-name="Ellipse 42"><ellipse class="cls-1" cx="58" cy="56.5" rx="58" ry="56.5"/><ellipse class="cls-2" cx="58" cy="56.5" rx="56.5" ry="55"/></g></g></g></g></svg>